<?xml version="1.0" encoding="UTF-8"?>
<svg id="uuid-e0b74b68-9d93-4f22-95eb-a459fcd32657" data-name="Layer 1" xmlns="http://www.w3.org/2000/svg" viewBox="0 0 105.02 98.65">
  <defs>
    <style>
      .uuid-b6f590cb-255a-456a-a480-c732afbc3b58 {
        fill: #fff;
      }
    </style>
  </defs>
  <path class="uuid-b6f590cb-255a-456a-a480-c732afbc3b58" d="M52.51,2.65c27.38,0,49.66,20.94,49.66,46.67s-22.28,46.67-49.66,46.67S2.85,75.06,2.85,49.33,25.13,2.65,52.51,2.65h0ZM52.51,0C23.56,0,0,22.13,0,49.33s23.56,49.33,52.51,49.33,52.51-22.13,52.51-49.33S81.46,0,52.51,0h0Z"/>
  <path class="uuid-b6f590cb-255a-456a-a480-c732afbc3b58" d="M39.12,28.48c-.28,0-.52.22-.52.48s.23.48.52.48h26.88c.29,0,.52-.22.52-.48s-.23-.48-.52-.48h-26.88Z"/>
  <path class="uuid-b6f590cb-255a-456a-a480-c732afbc3b58" d="M16.92,32.91h71.24c.46,0,.84-.35.84-.79s-.38-.79-.84-.79H16.92c-.46,0-.84.35-.84.79s.38.79.84.79h0Z"/>
  <path class="uuid-b6f590cb-255a-456a-a480-c732afbc3b58" d="M22.94,24.55c.87,1.26,2.14,2.1,3.58,2.38.35.07.71.1,1.06.1,1.1,0,2.2-.33,3.24-.96,1.46-.9,2.22-2.09,2.6-2.93.25-.5.21-.97-.11-1.44l-1.55-2.23c-.17-.24-.43-.41-.72-.47-.29-.06-.6,0-.85.16l-2.48,1.52c-.47.29-.61.88-.31,1.32.14.21.37.35.63.4.27.05.55,0,.78-.14l1.59-.98.93,1.33c-.29.69-.87,1.33-1.6,1.78-.8.49-1.67.66-2.52.5-.91-.18-1.73-.73-2.33-1.6-1.07-1.55-.73-3.55.78-4.48.82-.5,1.54-.69,2.5-.64.22.01.47,0,.71-.16.52-.32.66-.97.33-1.45-.28-.4-.71-.47-.89-.48-1.34-.07-2.46.26-3.75,1.05-2.66,1.64-3.38,4.88-1.64,7.39l.02.02h0Z"/>
  <path class="uuid-b6f590cb-255a-456a-a480-c732afbc3b58" d="M36.92,21.58c.09.28.29.51.56.64.16.08.34.12.52.12.11,0,.23-.02.35-.05l5.49-1.58c.55-.16.86-.71.69-1.22-.08-.25-.27-.46-.52-.58-.24-.12-.53-.15-.79-.07l-4.42,1.27-2.31-7.09c-.09-.27-.28-.5-.55-.63-.26-.13-.56-.15-.85-.07-.61.17-.94.75-.76,1.31l2.58,7.95h0Z"/>
  <path class="uuid-b6f590cb-255a-456a-a480-c732afbc3b58" d="M50.3,15.68l1.51-3.43,1.63,3.38-3.15.05h0ZM47.59,20.12s.01,0,.02,0c.48,0,.86-.26,1.03-.68l.81-1.83,4.91-.07.84,1.75c.21.46.6.71,1.08.71,0,0,.01,0,.02,0,.6,0,1.07-.46,1.06-1.04,0-.15-.05-.31-.13-.44l-4.09-8.22c-.26-.52-.7-.8-1.27-.8,0,0-.02,0-.03,0h-.09c-.58,0-1.04.31-1.29.84l-3.81,8.33c-.09.18-.13.33-.13.48,0,.27.12.52.32.7.2.18.46.28.74.28h0Z"/>
  <path class="uuid-b6f590cb-255a-456a-a480-c732afbc3b58" d="M62.23,18.99l1.94-6.17,1.82.51c1.97.55,2.96,2.2,2.37,4.05-.28.88-.83,1.56-1.61,1.94-.78.39-1.72.45-2.71.18l-1.82-.51h0ZM60.56,20.57l2.9.81c.64.18,1.28.27,1.9.27.95,0,1.85-.2,2.66-.61,1.26-.63,2.19-1.72,2.62-3.09.9-2.86-.8-5.59-4.05-6.49l-2.9-.81c-.29-.08-.6-.05-.86.08-.27.13-.46.36-.55.64l-2.48,7.88c-.18.57.16,1.15.77,1.32h0Z"/>
  <path class="uuid-b6f590cb-255a-456a-a480-c732afbc3b58" d="M75.94,21.76l3.3-2.03-.67,3.66-2.63-1.62h0ZM71.05,24.01c.4.25.87.24,1.27-.02l1.77-1.08,4.11,2.53-.35,1.89c-.1.5.08.91.49,1.16.18.11.38.17.59.17.07,0,.14,0,.21-.02.29-.05.53-.21.7-.45.09-.13.15-.29.16-.43l1.53-8.96c.1-.58-.11-1.05-.59-1.34l-.08-.05c-.49-.3-1.05-.3-1.57.02l-8.13,4.88c-.18.1-.31.21-.4.33-.32.47-.19,1.07.3,1.37h0Z"/>
  <path class="uuid-b6f590cb-255a-456a-a480-c732afbc3b58" d="M25.4,74.5l1.39-1.57,1.73,1.35c.74.57.92,1.18.48,1.67-.18.21-.41.33-.66.35-.37.02-.83-.15-1.3-.52l-1.64-1.28h0ZM26.81,79.21c-.19.21-.41.33-.66.35-.39.03-.85-.15-1.34-.53l-2.02-1.58,1.45-1.63,1.92,1.5c.63.49,1.26,1.22.66,1.9h0ZM30.8,76.97c.44-.49.63-1.06.57-1.68-.08-.79-.58-1.57-1.46-2.26l-2.67-2.09c-.22-.17-.49-.25-.77-.23-.28.02-.53.15-.71.36l-5.08,5.74c-.37.42-.31,1.03.14,1.38l2.78,2.17c.94.73,1.88,1.12,2.74,1.12.08,0,.16,0,.24-.01.68-.06,1.26-.36,1.76-.92.72-.82.8-1.69.24-2.72.91.09,1.65-.2,2.24-.87h0Z"/>
  <path class="uuid-b6f590cb-255a-456a-a480-c732afbc3b58" d="M33.12,80.76c.37-.79,1.02-1.39,1.82-1.68.34-.12.69-.18,1.03-.18.42,0,.83.09,1.24.25,1.61.67,2.26,2.37,1.52,3.96v.03c-.38.79-1.03,1.38-1.82,1.67-.73.27-1.53.24-2.28-.07-1.61-.67-2.27-2.37-1.51-3.97h0ZM38.03,77.5c-1.32-.55-2.74-.59-4.02-.14-1.29.46-2.31,1.39-2.89,2.61v.02c-1.2,2.53-.03,5.28,2.69,6.41.72.3,1.47.45,2.21.45.62,0,1.23-.1,1.81-.31,1.29-.46,2.31-1.39,2.9-2.63,1.19-2.53.02-5.28-2.7-6.41h0Z"/>
  <path class="uuid-b6f590cb-255a-456a-a480-c732afbc3b58" d="M51.51,80.58c-.26-.03-.53.04-.75.19-.22.16-.36.39-.39.64l-.64,5-3.76-5.91c-.19-.28-.43-.59-.96-.65l-.18-.02c-.27-.03-.55.04-.77.2-.22.16-.37.4-.4.66l-.96,7.55c-.07.52.34,1,.91,1.07.27.03.54-.04.75-.2.22-.16.36-.39.39-.64l.66-5.18,3.87,6.09c.19.3.45.6.96.66h.07s.08.02.13.02c.23,0,.44-.07.62-.2.22-.16.36-.39.39-.66l.97-7.57c.07-.52-.34-1-.91-1.07h0Z"/>
  <path class="uuid-b6f590cb-255a-456a-a480-c732afbc3b58" d="M59.09,87.67l-1.69.26-.99-5.73,1.69-.26c.91-.14,1.74.02,2.39.45.65.43,1.08,1.12,1.23,1.96.29,1.7-.76,3.03-2.63,3.32h0ZM61.87,80.94c-1.12-.74-2.57-1.02-4.08-.79l-2.71.41c-.58.09-.96.58-.87,1.13l1.27,7.37c.05.27.2.5.42.65.18.12.38.18.6.18.06,0,.12,0,.18-.01l2.71-.41c3.04-.46,4.92-2.76,4.45-5.48-.22-1.25-.92-2.33-1.97-3.03h0Z"/>
  <path class="uuid-b6f590cb-255a-456a-a480-c732afbc3b58" d="M74.09,83.36c-.24-.08-.5-.08-.73.02l-4.24,1.77-.9-1.9,3.62-1.51c.48-.2.7-.72.49-1.16-.11-.22-.3-.4-.54-.48-.24-.08-.49-.08-.72.02l-3.61,1.51-.86-1.83,4.19-1.75c.48-.2.69-.73.48-1.18-.1-.22-.29-.38-.54-.47-.24-.08-.5-.08-.73.02l-5.13,2.14c-.54.22-.77.79-.53,1.3l3.23,6.82c.12.25.32.43.58.53.12.04.24.06.36.06.15,0,.3-.03.44-.09l5.19-2.17c.48-.2.69-.73.48-1.18-.1-.22-.29-.38-.53-.47h0Z"/>
  <path class="uuid-b6f590cb-255a-456a-a480-c732afbc3b58" d="M79.1,71.18c-.17-.2-.41-.32-.69-.35-.28-.03-.55.05-.76.21-.44.33-.51.93-.16,1.34l3.36,3.94-7.13-1.62c-.34-.07-.75-.12-1.16.19l-.14.11c-.45.34-.52.96-.16,1.38l5.06,5.94c.17.2.41.32.68.35.04,0,.08,0,.11,0,.24,0,.46-.08.65-.22.44-.33.51-.93.16-1.34l-3.48-4.08,7.34,1.67c.36.08.78.12,1.18-.18l.05-.04c.45-.33.51-.93.15-1.35l-5.07-5.95h0Z"/>
  <path class="uuid-b6f590cb-255a-456a-a480-c732afbc3b58" d="M15.56,61.18c.78,0,1.39-.57,1.39-1.31v-14.54c.63,1.29,1.29,2.58,1.83,3.65l.31.62c.41.81.82,1.62,1.19,2.38.22.49.65.74,1.27.74.54,0,.95-.24,1.26-.74.36-.75.77-1.54,1.16-2.33l.03-.06c.4-.79.86-1.72,1.35-2.69.26-.52.53-1.06.79-1.6v14.56c0,.77.57,1.31,1.39,1.31s1.39-.57,1.39-1.31v-20.41c0-.63-.45-1.15-1.09-1.27-.63-.12-1.25.15-1.56.7-.63,1.3-1.28,2.57-1.91,3.8-.83,1.59-1.71,3.39-2.42,4.84-.15.3-.28.57-.41.83-.5-.97-1.14-2.27-1.81-3.64-.34-.68-.68-1.37-1-2.03-.62-1.2-1.26-2.48-1.91-3.81-.31-.54-.92-.81-1.56-.69-.64.12-1.09.64-1.09,1.27v20.41c0,.77.57,1.31,1.39,1.31h0Z"/>
  <path class="uuid-b6f590cb-255a-456a-a480-c732afbc3b58" d="M41.85,40.91c.82,0,1.39-.54,1.39-1.31s-.57-1.31-1.39-1.31h-7.49c-.82,0-1.39.54-1.39,1.31v20.13c0,.77.57,1.31,1.39,1.31h7.49c.82,0,1.39-.54,1.39-1.31s-.57-1.31-1.39-1.31h-6.1v-7.81h5.35c.82,0,1.39-.54,1.39-1.31s-.57-1.31-1.39-1.31h-5.35v-7.1h6.1Z"/>
  <path class="uuid-b6f590cb-255a-456a-a480-c732afbc3b58" d="M46.53,60.46c.9.48,1.91.73,2.94.73s2.05-.25,2.94-.73h0c1.82-.98,2.94-2.82,2.94-4.8v-16.19c0-.73-.61-1.31-1.39-1.31-.82,0-1.39.54-1.39,1.31v16.19c0,1.04-.61,2.03-1.55,2.52-.96.52-2.18.54-3.1,0-.67-.36-1.51-.14-1.91.49-.19.3-.24.65-.15,1,.1.34.33.63.67.8h0Z"/>
  <path class="uuid-b6f590cb-255a-456a-a480-c732afbc3b58" d="M68.15,40.91c.82,0,1.39-.54,1.39-1.31s-.57-1.31-1.39-1.31h-7.49c-.82,0-1.39.54-1.39,1.31v20.13c0,.77.57,1.31,1.39,1.31h7.49c.82,0,1.39-.54,1.39-1.31s-.57-1.31-1.39-1.31h-6.1v-7.81h5.35c.82,0,1.39-.54,1.39-1.31s-.57-1.31-1.39-1.31h-5.35v-7.1h6.1Z"/>
  <path class="uuid-b6f590cb-255a-456a-a480-c732afbc3b58" d="M81.83,43.83v1.97c0,1.64-1.36,2.92-3.1,2.92h-3.1v-7.81h3.1c1.71,0,3.1,1.31,3.1,2.92h0ZM84.62,45.8v-1.97c0-3.05-2.64-5.53-5.89-5.53h-4.49c-.78,0-1.39.57-1.39,1.31v20.27c0,.73.61,1.31,1.39,1.31.82,0,1.39-.54,1.39-1.31v-8.55h2.74l3.55,9c.16.36.46.64.82.78.15.06.31.09.47.09.17,0,.34-.03.5-.1.38-.15.68-.42.82-.75.13-.3.13-.63,0-.92l-3.38-8.57c2.11-.89,3.47-2.86,3.47-5.06h0Z"/>
  <path class="uuid-b6f590cb-255a-456a-a480-c732afbc3b58" d="M88.07,39.47v20.41c0,.73.61,1.31,1.39,1.31.82,0,1.39-.54,1.39-1.31v-20.41c0-.77-.57-1.31-1.39-1.31s-1.39.57-1.39,1.31h0Z"/>
  <path class="uuid-b6f590cb-255a-456a-a480-c732afbc3b58" d="M66.47,68.91c0-.27-.23-.48-.52-.48h-26.88c-.28,0-.52.22-.52.48s.23.48.52.48h26.88c.29,0,.52-.22.52-.48h0Z"/>
  <path class="uuid-b6f590cb-255a-456a-a480-c732afbc3b58" d="M88.15,64.96H16.92c-.46,0-.84.35-.84.79s.38.79.84.79h71.24c.46,0,.84-.35.84-.79s-.38-.79-.84-.79h0Z"/>
</svg>