<?xml version="1.0" encoding="utf-8"?>
<!-- Generator: Adobe Illustrator 27.4.0, SVG Export Plug-In . SVG Version: 6.00 Build 0)  -->
<svg version="1.1" id="Lager_1" xmlns="http://www.w3.org/2000/svg" xmlns:xlink="http://www.w3.org/1999/xlink" x="0px" y="0px"
	 viewBox="0 0 605.52 177.49" style="enable-background:new 0 0 605.52 177.49;" xml:space="preserve">
<style type="text/css">
	.st0{fill:url(#SVGID_1_);}
	.st1{fill:#DBA481;}
</style>
<radialGradient id="SVGID_1_" cx="302.7593" cy="58.5042" r="218.0435" gradientUnits="userSpaceOnUse">
	<stop  offset="2.697789e-03" style="stop-color:#FFFFFF"/>
	<stop  offset="0.0318" style="stop-color:#FDFAF9"/>
	<stop  offset="0.2457" style="stop-color:#F1DCCE"/>
	<stop  offset="0.4534" style="stop-color:#E7C3AC"/>
	<stop  offset="0.6505" style="stop-color:#E1B294"/>
	<stop  offset="0.8329" style="stop-color:#DCA886"/>
	<stop  offset="0.9861" style="stop-color:#DBA481"/>
</radialGradient>
<path class="st0" d="M63.18,68.3c4.09,0,7.46,1.46,10.38,4.39c2.78,2.92,4.39,6.29,4.39,10.24c0,2.05-0.44,3.95-1.17,5.7
	c-0.73,1.9-1.75,3.36-3.07,4.68c-1.32,1.32-2.92,2.34-4.83,3.07c-1.76,0.73-3.66,1.02-5.7,1.02v19.6c9.51,0,17.55-3.36,24.13-9.95
	c6.73-6.73,10.09-14.77,10.09-24.13c0-9.36-3.36-17.41-10.09-24.13c-6.58-6.58-14.63-9.95-24.13-9.95H34.08
	c-4.24,0-7.61-1.46-10.53-4.39c-2.78-2.92-4.09-6.29-4.09-10.38c0-1.9,0.29-3.8,1.02-5.56s1.76-3.36,3.07-4.68
	c1.46-1.46,2.92-2.49,4.83-3.22c1.75-0.73,3.66-1.02,5.7-1.02V0C24.57,0,16.53,3.36,9.95,10.09C3.36,16.82,0,24.72,0,34.08
	c0,9.51,3.36,17.55,9.95,24.28c6.58,6.58,14.63,9.95,24.13,9.95H63.18L63.18,68.3z M188.09,58.5L233.72,0h-24.72l-33.35,42.71
	L142.46,0h-25.01l45.93,58.5l-45.93,58.5h25.01l33.2-42.71v0.15L188.09,58.5L188.09,58.5z M175.66,74.3l-33.2,42.71l33.2-42.56V74.3
	L175.66,74.3z M325.14,0v70.06L247.33,0v29.54l97.26,87.46v-0.15v-0.15V0H325.14L325.14,0z M425.47,0
	c-16.24,0-29.98,5.85-41.25,17.26c-11.41,11.41-17.26,25.16-17.26,41.25c0,16.24,5.85,29.84,17.26,41.25
	c11.41,11.41,25.01,17.26,41.25,17.26c16.24,0,29.84-5.85,41.25-17.26c11.55-11.26,17.41-25.01,17.41-41.25
	c0-16.09-5.85-29.84-17.41-41.25C455.31,5.85,441.71,0,425.47,0L425.47,0z M425.47,19.6c10.68,0,19.89,3.8,27.5,11.41
	c7.61,7.61,11.41,16.82,11.41,27.5c0,10.68-3.66,19.89-11.41,27.64c-7.61,7.61-16.82,11.26-27.5,11.26
	c-10.68,0-20.04-3.66-27.64-11.26c-7.61-7.61-11.26-16.97-11.26-27.64c0-10.68,3.66-19.89,11.26-27.5
	C405.58,23.26,414.79,19.6,425.47,19.6L425.47,19.6z M571.29,68.3c4.1,0,7.46,1.46,10.38,4.39c2.78,2.92,4.39,6.29,4.39,10.24
	c0,2.05-0.44,3.95-1.17,5.7c-0.73,1.9-1.76,3.36-3.07,4.68c-1.32,1.32-2.92,2.34-4.83,3.07c-1.75,0.73-3.66,1.02-5.7,1.02v19.6
	c9.51,0,17.55-3.36,24.13-9.95c6.73-6.73,10.09-14.77,10.09-24.13c0-9.36-3.36-17.41-10.09-24.13c-6.58-6.58-14.63-9.95-24.13-9.95
	h-29.11c-4.24,0-7.61-1.46-10.53-4.39c-2.78-2.92-4.09-6.29-4.09-10.38c0-1.9,0.29-3.8,1.02-5.56c0.73-1.76,1.75-3.36,3.07-4.68
	c1.46-1.46,2.92-2.49,4.83-3.22c1.76-0.73,3.66-1.02,5.7-1.02V0c-9.51,0-17.55,3.36-24.13,10.09c-6.58,6.73-9.95,14.63-9.95,23.99
	c0,9.51,3.36,17.55,9.95,24.28c6.58,6.58,14.63,9.95,24.13,9.95H571.29L571.29,68.3z"/>
<path class="st1" d="M35.64,153.26v20.78H33.2v-15.33l0.13-2.16l-0.52,2.36l-5.2,14.01h-2.43l-5.19-14.01l-0.52-2.36l0.13,2.16
	v15.33h-2.46v-20.78h3.21l5.86,16.61l0.19,0.99l0.19-0.99l5.87-16.61H35.64L35.64,153.26z M59.57,153.26h12.17v2.22l-9.75,0.02v7.04
	h9.54l-0.02,2.17h-9.53v7.12l9.75-0.02v2.24H59.57V153.26L59.57,153.26z M95.39,153.26h4.74c2.21,0,4.03,0.45,5.46,1.33
	c1.43,0.89,2.49,2.12,3.17,3.68c0.69,1.56,1.03,3.35,1.03,5.37c0,2.03-0.34,3.82-1.02,5.39c-0.68,1.56-1.74,2.79-3.17,3.68
	c-1.43,0.89-3.25,1.34-5.48,1.34h-4.74V153.26L95.39,153.26z M97.83,155.51v16.28h2.11c1.68,0,3.05-0.35,4.12-1.05
	c1.07-0.69,1.86-1.65,2.38-2.88c0.51-1.22,0.78-2.62,0.79-4.19c0.01-1.58-0.24-2.99-0.75-4.21c-0.51-1.22-1.31-2.18-2.39-2.89
	c-1.08-0.7-2.47-1.06-4.16-1.06H97.83L97.83,155.51z M132.96,153.26h2.46v20.78h-2.44L132.96,153.26L132.96,153.26z M169.33,172.01
	c1.33,0,2.48-0.18,3.45-0.55c0.97-0.37,1.65-0.72,2.06-1.07l1.07,2.11c-0.46,0.42-1.28,0.84-2.44,1.28
	c-1.17,0.43-2.58,0.65-4.22,0.65c-1.53,0-2.95-0.28-4.26-0.83c-1.31-0.55-2.46-1.31-3.43-2.29c-0.98-0.98-1.75-2.11-2.29-3.41
	c-0.55-1.29-0.82-2.7-0.82-4.21c0-1.51,0.27-2.92,0.82-4.23c0.54-1.3,1.31-2.45,2.28-3.43c0.98-0.98,2.12-1.75,3.43-2.3
	s2.73-0.83,4.27-0.83c1.64,0,3.05,0.21,4.22,0.65c1.16,0.43,1.98,0.86,2.44,1.28l-1.07,2.11c-0.41-0.36-1.1-0.71-2.06-1.08
	c-0.97-0.36-2.12-0.54-3.45-0.54c-1.19,0-2.28,0.21-3.27,0.62c-1,0.42-1.87,1-2.61,1.74c-0.75,0.75-1.32,1.63-1.73,2.65
	c-0.41,1.02-0.61,2.13-0.61,3.34c0,1.22,0.2,2.34,0.61,3.36c0.41,1.02,0.99,1.91,1.73,2.66c0.75,0.74,1.62,1.32,2.61,1.74
	C167.05,171.81,168.14,172.01,169.33,172.01L169.33,172.01z M204.85,153.26h2.57l7.62,20.78h-2.61l-1.83-5.1h-8.93l-1.84,5.1h-2.63
	L204.85,153.26L204.85,153.26z M202.46,166.71h7.38l-3.68-10.42h-0.05L202.46,166.71L202.46,166.71z M236.76,153.26h2.44v18.56
	l8.25-0.02v2.24h-10.71L236.76,153.26L236.76,153.26z M285.64,153.26h12.17v2.22l-9.74,0.02v7.04h9.54l-0.02,2.17h-9.52v7.12
	l9.74-0.02v2.24h-12.17V153.26L285.64,153.26z M336.56,175.16c0.61,0,1.13-0.07,1.59-0.21c0.44-0.14,0.79-0.29,1.05-0.44
	c0.25-0.15,0.4-0.24,0.43-0.28l1.06,1.78c-0.25,0.29-0.72,0.61-1.4,0.96c-0.68,0.35-1.6,0.52-2.75,0.52c-0.73,0-1.34-0.08-1.86-0.24
	c-0.52-0.16-1.01-0.34-1.46-0.55s-0.92-0.4-1.4-0.56c-0.48-0.16-1.05-0.25-1.72-0.25c-0.64,0-1.22,0.12-1.72,0.35
	c-0.51,0.23-0.92,0.46-1.22,0.7c-0.3,0.24-0.47,0.37-0.5,0.41l-1.24-1.43c0.68-0.61,1.43-1.1,2.25-1.48
	c0.81-0.38,1.76-0.57,2.86-0.57c0.82,0,1.55,0.1,2.18,0.31c0.63,0.21,1.26,0.42,1.87,0.64
	C335.17,175.05,335.83,175.16,336.56,175.16L336.56,175.16z M323,163.63c0,1.59,0.34,3.01,1,4.29c0.66,1.28,1.58,2.29,2.74,3.03
	c1.17,0.75,2.5,1.12,4.01,1.12c1.51,0,2.85-0.37,4.02-1.12c1.16-0.75,2.07-1.75,2.73-3.03c0.65-1.28,0.98-2.7,0.98-4.29
	c0-1.58-0.33-3.01-0.98-4.28c-0.66-1.27-1.57-2.27-2.73-3.02c-1.17-0.74-2.5-1.11-4.02-1.11c-1.51,0-2.85,0.37-4.01,1.11
	c-1.17,0.74-2.08,1.75-2.74,3.02C323.34,160.62,323,162.05,323,163.63L323,163.63z M320.47,163.63c0-1.51,0.26-2.92,0.78-4.23
	c0.51-1.3,1.24-2.45,2.17-3.42c0.92-0.98,2.02-1.74,3.27-2.28c1.25-0.55,2.61-0.82,4.07-0.82c1.48,0,2.84,0.27,4.09,0.82
	c1.24,0.55,2.32,1.31,3.26,2.28c0.92,0.98,1.64,2.12,2.16,3.42c0.5,1.31,0.76,2.72,0.76,4.23c0,1.52-0.25,2.94-0.76,4.24
	c-0.5,1.31-1.22,2.46-2.15,3.43c-0.93,0.98-2.02,1.75-3.26,2.29c-1.24,0.55-2.61,0.82-4.1,0.82s-2.87-0.27-4.12-0.82
	c-1.26-0.55-2.35-1.31-3.26-2.29c-0.92-0.98-1.64-2.12-2.14-3.43C320.73,166.57,320.47,165.16,320.47,163.63L320.47,163.63z
	 M376.29,153.26h2.46v12.93c0,1.71-0.35,3.18-1.03,4.41c-0.69,1.23-1.62,2.18-2.8,2.83c-1.18,0.66-2.53,0.99-4.04,0.99
	c-1.51,0-2.86-0.33-4.06-0.99c-1.2-0.65-2.14-1.6-2.82-2.83c-0.68-1.23-1.02-2.7-1.02-4.41v-12.93h2.44v12.8
	c0,1.24,0.24,2.31,0.72,3.22c0.47,0.91,1.13,1.61,1.96,2.1c0.83,0.49,1.76,0.74,2.79,0.74c1.03,0,1.95-0.25,2.77-0.74
	c0.81-0.49,1.46-1.2,1.94-2.1c0.48-0.91,0.71-1.98,0.71-3.22V153.26L376.29,153.26z M402.37,153.26h2.46v20.78h-2.44L402.37,153.26
	L402.37,153.26z M428.94,153.26h5.67c1.29,0,2.46,0.21,3.51,0.63c1.05,0.42,1.87,1.08,2.49,1.97c0.62,0.9,0.93,2.07,0.93,3.51
	c0,1.45-0.31,2.64-0.93,3.58c-0.62,0.94-1.45,1.64-2.49,2.1c-1.05,0.46-2.21,0.69-3.51,0.69h-3.23v8.3h-2.44V153.26L428.94,153.26z
	 M431.38,163.67h2.57c0.92,0,1.76-0.13,2.52-0.4c0.76-0.27,1.36-0.71,1.81-1.34c0.45-0.62,0.68-1.46,0.69-2.51
	c-0.01-1.05-0.24-1.87-0.69-2.47c-0.45-0.59-1.05-1.01-1.81-1.25c-0.76-0.24-1.59-0.36-2.52-0.36l-2.57-0.02V163.67L431.38,163.67z
	 M482.77,153.26v20.78h-2.44v-15.33l0.13-2.16l-0.52,2.36l-5.2,14.01h-2.42l-5.2-14.01l-0.52-2.36l0.13,2.16v15.33h-2.46v-20.78
	h3.21l5.86,16.61l0.19,0.99l0.19-0.99l5.87-16.61H482.77L482.77,153.26z M506.7,153.26h12.17v2.22l-9.75,0.02v7.04h9.54l-0.02,2.17
	h-9.53v7.12l9.75-0.02v2.24H506.7V153.26L506.7,153.26z M544.92,155.59l0.16,0.03v18.42h-2.45v-20.78h3.49l11.05,18.4l-0.14,0.03
	v-18.44h2.44v20.78h-3.51L544.92,155.59L544.92,155.59z M587.56,155.48l-5.7,0.02l0.02-2.24h13.82v2.22l-5.68,0.02L590,174.04h-2.44
	V155.48L587.56,155.48z"/>
</svg>
